<svg width="104" height="70" viewBox="0 0 104 70" fill="none" xmlns="http://www.w3.org/2000/svg">
<path d="M86.5426 69.3875C86.3042 69.1683 86.1166 68.9019 85.9924 68.6061C85.8682 68.3104 85.8102 67.992 85.8223 67.6726C85.8298 67.2161 85.9417 66.7671 86.15 66.3583C86.3582 65.9495 86.6573 65.5914 87.0257 65.3102C87.3936 65.0289 87.8215 64.8316 88.2777 64.7328C88.7339 64.6339 89.2071 64.6361 89.6624 64.7391C89.9556 64.8071 90.232 64.9314 90.4756 65.1047C90.7191 65.278 90.925 65.4968 91.0812 65.7485C91.2374 66.0001 91.3408 66.2796 91.3853 66.5705C91.4299 66.8615 91.4147 67.1583 91.3408 67.4435C91.2107 68.1375 90.8426 68.7677 90.2969 69.2303C89.7512 69.6929 89.0605 69.9604 88.3384 69.9889C88.2623 69.9963 88.1863 70 88.1102 70C87.5268 69.9984 86.9661 69.7793 86.5426 69.3875ZM88.3547 65.9211C88.0002 66.0423 87.6955 66.2723 87.4862 66.5767C87.2769 66.8812 87.1742 67.2436 87.1936 67.6098C87.1913 67.8324 87.2528 68.0511 87.3712 68.2413C87.4896 68.4316 87.6602 68.5857 87.8636 68.6862C88.0671 68.7868 88.2953 68.8297 88.5225 68.8103C88.7496 68.7908 88.9667 68.7098 89.1491 68.5762C89.3936 68.4329 89.5989 68.2339 89.7473 67.9962C89.8958 67.7584 89.9829 67.4891 90.0013 67.2112C90.0229 67.0436 90.0083 66.8735 89.9585 66.7117C89.9087 66.5499 89.8247 66.4001 89.7121 66.2719C89.5995 66.1436 89.4606 66.0398 89.3044 65.9671C89.1482 65.8943 88.9782 65.8543 88.8052 65.8495C88.6521 65.8503 88.5002 65.8745 88.3547 65.9211ZM76.1681 69.9777C75.9832 69.9677 75.7997 69.9411 75.6198 69.8982C75.2185 69.8082 74.8672 69.5727 74.6371 69.2394C74.407 68.9061 74.3153 68.4998 74.3805 68.1029C74.462 67.4363 74.5629 66.7738 74.655 66.1088C74.6917 65.8551 74.677 65.8232 74.4212 65.8336C74.2387 65.8431 74.211 65.7763 74.2387 65.6228C74.2802 65.3762 74.3112 65.1273 74.343 64.8815C74.3552 64.7781 74.3959 64.7335 74.5108 64.7383C74.6933 64.7478 74.8913 64.7383 75.0812 64.7383L75.0909 64.7486C75.2954 64.7486 75.4983 64.7367 75.7053 64.7486C76.0231 64.7725 76.1379 64.9077 76.102 65.2132C76.0401 65.7365 75.9628 66.2607 75.8919 66.7841C75.843 67.1596 75.7819 67.5326 75.7403 67.9096C75.6873 68.3797 75.8112 68.6255 76.1347 68.7408C76.3355 68.8107 76.5542 68.8152 76.7579 68.7537C76.9616 68.6922 77.1393 68.568 77.2647 68.3996C77.3716 68.2202 77.4341 68.0189 77.4472 67.8118C77.5662 66.9559 77.6819 66.0977 77.8025 65.2442C77.8481 64.926 77.9964 64.7709 78.3109 64.755C78.5342 64.743 78.7574 64.7446 78.9815 64.7446C79.1673 64.7446 79.3539 64.7447 79.5405 64.7407C79.6219 64.7407 79.6643 64.7637 79.6521 64.8528C79.6121 65.1424 79.5706 65.4311 79.5372 65.723C79.5225 65.836 79.4451 65.8288 79.3539 65.8304C79.028 65.8304 79.028 65.8447 78.9889 66.1661C78.9074 66.7825 78.8258 67.399 78.7329 68.0114C78.6553 68.5589 78.3777 69.0605 77.9511 69.4239C77.5245 69.7873 76.9778 69.9879 76.4117 69.9889C76.3303 69.9898 76.2491 69.9866 76.1681 69.9793V69.9777ZM81.627 69.856C81.0958 69.6958 80.6448 69.348 80.3622 68.8806C80.0796 68.4131 79.9856 67.8596 80.0985 67.3282C80.1846 66.6081 80.5333 65.9424 81.0809 65.4528C81.6285 64.9632 82.3384 64.6825 83.0806 64.6619C83.5722 64.6282 84.0639 64.7263 84.5024 64.9459C84.6949 65.0218 84.8539 65.1612 84.9519 65.3398C85.0498 65.5185 85.0805 65.725 85.0385 65.9235C84.9798 66.5351 84.9799 66.5351 84.3541 66.5351H84.1716C84.0573 66.555 83.9399 66.5501 83.8278 66.5208C83.7382 66.4723 83.8278 66.3188 83.8058 66.213C83.7862 66.0348 83.6599 65.9744 83.5205 65.9235C83.2419 65.8333 82.9428 65.8221 82.6578 65.891C82.3729 65.96 82.1138 66.1064 81.9106 66.3132C81.7224 66.5107 81.5861 66.7497 81.5131 67.0099C81.4402 67.27 81.4329 67.5435 81.4918 67.807C81.5234 67.9823 81.5941 68.1488 81.6989 68.2945C81.8037 68.4402 81.94 68.5616 82.0982 68.6502C82.2564 68.7387 82.4326 68.7922 82.6144 68.8069C82.7961 68.8216 82.9789 68.7972 83.1499 68.7353C83.5703 68.6294 83.9586 68.4267 84.2824 68.1443C84.4519 68.4306 84.6133 68.709 84.7811 68.9842C84.8308 69.0638 84.7811 69.0988 84.7354 69.1433C84.1277 69.6703 83.3481 69.9696 82.5355 69.9881C82.2268 69.9868 81.9199 69.9429 81.6238 69.8576L81.627 69.856ZM46.0076 69.9133C45.6956 69.8958 45.3793 69.903 45.0648 69.9133C44.9255 69.9133 44.8963 69.8815 44.9166 69.7343C45.0991 68.4982 45.2572 67.2606 45.4356 66.0221C45.4576 65.8686 45.4356 65.8272 45.2726 65.8328C44.9907 65.8415 44.9899 65.8328 45.0282 65.5504C45.0576 65.3253 45.0942 65.0986 45.1186 64.8719C45.1186 64.782 45.1618 64.7462 45.2539 64.7462C46.0874 64.7462 46.9226 64.7176 47.7528 64.7637C47.9884 64.7548 48.2222 64.8051 48.432 64.91C48.6418 65.0148 48.8205 65.1706 48.9507 65.3624C49.081 65.5542 49.1585 65.7755 49.1757 66.005C49.1929 66.2345 49.1493 66.4645 49.0491 66.6727C48.9813 66.8945 48.8681 67.1006 48.7163 67.2783C48.5645 67.4561 48.3772 67.6018 48.1659 67.7068C48.4698 67.9192 48.5146 68.2636 48.6409 68.5611C48.7045 68.7146 48.7909 68.8204 48.975 68.8076C49.0866 68.8076 49.107 68.845 49.0899 68.9484C49.0442 69.2165 49.0084 69.4846 48.9783 69.7558C48.9677 69.8465 48.9416 69.9029 48.8341 69.899C48.5709 69.8894 48.3077 69.8886 48.0461 69.8815C47.9313 69.8814 47.8197 69.8449 47.728 69.7774C47.6363 69.71 47.5695 69.6153 47.5377 69.5076C47.3967 69.1505 47.2558 68.7918 47.1116 68.4362C47.0661 68.3271 46.9804 68.2385 46.8714 68.1879C46.7624 68.1373 46.638 68.1283 46.5225 68.1626C46.4329 68.1872 46.4476 68.2572 46.4411 68.3161C46.3775 68.7758 46.3131 69.2364 46.2585 69.6977C46.2414 69.8385 46.1966 69.9093 46.045 69.9093L46.0076 69.9133ZM47.1214 65.8399C46.7718 65.8399 46.7735 65.8399 46.7336 66.1581C46.7148 66.3068 46.6953 66.4556 46.67 66.6035C46.5885 67.115 46.5966 67.1269 47.1303 67.0808C47.2456 67.0627 47.355 67.0188 47.45 66.9526C47.545 66.8863 47.6229 66.7995 47.6778 66.699C47.7329 66.5986 47.7634 66.4871 47.767 66.3732C47.7705 66.2594 47.747 66.1463 47.6982 66.0428C47.6681 65.9851 47.6231 65.9362 47.5676 65.9007C47.5122 65.8653 47.4483 65.8446 47.3821 65.8407C47.3434 65.8368 47.3045 65.8349 47.2656 65.8352L47.1214 65.8399ZM41.7977 69.9061H40.6138C40.1934 69.9061 40.0662 69.747 40.1249 69.3398C40.2764 68.2445 40.4264 67.1492 40.5893 66.0539C40.6187 65.859 40.5527 65.8113 40.3775 65.8399C40.173 65.8734 40.1233 65.7914 40.16 65.6013C40.2015 65.3778 40.2276 65.1495 40.2529 64.9228C40.2675 64.7971 40.3115 64.7439 40.4582 64.7439C40.9845 64.7439 41.5035 64.7439 42.038 64.7439H43.5494C43.9853 64.7439 44.0978 64.8703 44.0611 65.2887C44.0342 65.5655 43.9796 65.8391 43.9495 66.1159C43.9373 66.2233 43.9079 66.275 43.78 66.275C43.4875 66.2639 43.195 66.2663 42.9025 66.275C42.7729 66.275 42.7395 66.2424 42.7664 66.1159C42.8137 65.8495 42.7957 65.8336 42.5163 65.8352C42.333 65.8352 42.0902 65.7596 41.968 65.867C41.8457 65.9744 41.8865 66.2138 41.862 66.4031C41.8066 66.769 41.8066 66.769 42.1748 66.769H43.1616C43.2765 66.769 43.3114 66.796 43.2911 66.9177C43.2454 67.1763 43.2096 67.4387 43.1868 67.702C43.1738 67.8357 43.1119 67.8611 42.9872 67.8611H41.8261C41.7015 67.8611 41.6436 67.885 41.6339 68.0202C41.6192 68.2254 41.585 68.4314 41.5524 68.6351C41.5312 68.7758 41.5891 68.8331 41.7357 68.8299C41.9402 68.8299 42.1431 68.8204 42.3493 68.8299C42.5554 68.8395 42.6149 68.7329 42.6125 68.5706C42.61 68.4084 42.6784 68.3813 42.8251 68.3917C43.1029 68.402 43.3734 68.3917 43.6586 68.3917C43.7645 68.3917 43.8215 68.406 43.802 68.5316C43.7531 68.8498 43.7205 69.168 43.6619 69.4861C43.655 69.5497 43.6354 69.6113 43.6041 69.6674C43.5727 69.7235 43.5303 69.773 43.4793 69.8131C43.4284 69.853 43.3698 69.8826 43.307 69.9001C43.2441 69.9176 43.1784 69.9226 43.1135 69.9149C42.9669 69.9204 42.821 69.922 42.6743 69.922C42.3794 69.9157 42.0869 69.9077 41.7936 69.9077L41.7977 69.9061ZM55.7832 69.794C55.8272 69.5044 55.8688 69.2133 55.9054 68.9238C55.916 68.853 55.947 68.8188 56.0187 68.826C56.2012 68.8434 56.2542 68.7257 56.3177 68.5993C56.9304 67.383 57.5481 66.1693 58.1575 64.9523C58.177 64.8846 58.2218 64.8265 58.283 64.7896C58.3443 64.7526 58.4176 64.7394 58.4883 64.7526C58.6412 64.7581 58.7944 64.7557 58.947 64.7454H59.2534C59.6339 64.7454 59.6339 64.7454 59.7146 65.1026C59.9785 66.2639 60.2441 67.4257 60.5113 68.5881C60.5382 68.7138 60.5586 68.8331 60.7321 68.822C60.8315 68.822 60.8348 68.8761 60.825 68.9477C60.7867 69.2316 60.7485 69.514 60.7118 69.798C60.7012 69.8711 60.6703 69.9125 60.5839 69.9085C60.2922 69.9085 60.0005 69.9085 59.708 69.8942C59.6038 69.8944 59.5034 69.8566 59.4263 69.7882C59.3493 69.7197 59.3012 69.6256 59.2917 69.5243C59.2509 69.3366 59.2102 69.1473 59.1776 68.958C59.1596 68.8562 59.1173 68.8172 59.004 68.8188H57.7558C57.7125 68.8131 57.6686 68.8227 57.632 68.8459C57.5953 68.8691 57.5685 68.9044 57.5562 68.9453C57.4666 69.1473 57.3639 69.343 57.267 69.5434C57.2248 69.648 57.1517 69.7379 57.0569 69.8017C56.9621 69.8654 56.8499 69.9001 56.7348 69.9014C56.4521 69.9014 56.1645 69.9014 55.881 69.9117C55.7889 69.9157 55.7685 69.8735 55.7799 69.7948L55.7832 69.794ZM58.0483 67.772H58.8859C58.9462 67.772 59.0195 67.7951 58.9991 67.679C58.912 67.1771 58.815 66.6712 58.7547 66.1509C58.5445 66.699 58.274 67.224 58.045 67.7728L58.0483 67.772ZM54.2856 69.9085C54.0416 69.8898 53.7965 69.8898 53.5524 69.9085C53.4923 69.9171 53.4311 69.9048 53.3793 69.8738C53.3275 69.8429 53.2884 69.7952 53.2689 69.7391C52.8183 68.8283 52.2968 67.9526 51.8707 67.0251C51.8144 67.815 51.6752 68.5889 51.5668 69.3661C51.5696 69.4422 51.5552 69.5181 51.5247 69.5883C51.4943 69.6585 51.4484 69.7213 51.3904 69.7723C51.3324 69.8234 51.2636 69.8614 51.189 69.8837C51.1143 69.9059 51.0354 69.912 50.9581 69.9014C50.5923 69.9109 50.2249 69.9014 49.8615 69.9014C49.7262 69.9014 49.6985 69.8536 49.7173 69.7375C49.7575 69.4835 49.7922 69.2287 49.8215 68.9731C49.8345 68.8514 49.8826 68.8069 50.0162 68.8084C50.325 68.8084 50.334 68.791 50.3813 68.4903C50.5442 67.2971 50.7071 66.0976 50.8701 64.9021C50.888 64.7685 50.9516 64.7431 51.0714 64.7431C51.3566 64.7431 51.6417 64.7526 51.9261 64.7431C51.9759 64.7373 52.0264 64.7486 52.0687 64.775C52.111 64.8014 52.1427 64.8412 52.1583 64.8878C52.6138 65.8049 53.1441 66.6879 53.5434 67.6328L53.5842 67.663C53.6167 66.8947 53.7667 66.1462 53.8547 65.3921C53.9125 64.8902 54.0706 64.7494 54.588 64.747H55.5966C55.7172 64.747 55.7507 64.7812 55.7303 64.8974C55.6847 65.1583 55.6406 65.4192 55.6186 65.6816C55.6064 65.8201 55.5478 65.8407 55.4248 65.8407C55.116 65.8407 55.116 65.8407 55.0761 66.1454C54.9131 67.3123 54.7501 68.4791 54.5953 69.6452C54.5724 69.817 54.5301 69.9133 54.3566 69.9133C54.3318 69.9132 54.307 69.9116 54.2825 69.9085H54.2856ZM69.4829 69.8982C69.0959 69.8982 68.9785 69.7455 69.0322 69.3414C69.1325 68.5627 69.2441 67.7855 69.3533 67.0084C69.3997 66.6688 69.4454 66.3299 69.5 65.9919C69.522 65.8654 69.4821 65.8328 69.3558 65.8328C69.0364 65.8328 69.0363 65.8328 69.0779 65.5146C69.1072 65.3094 69.1382 65.1034 69.1594 64.8982C69.1699 64.8003 69.1993 64.7391 69.3175 64.7462C69.6369 64.751 69.9562 64.7462 70.274 64.7462C70.7792 64.7462 71.2843 64.7399 71.7951 64.7669C71.8607 64.7689 71.9262 64.7755 71.9908 64.7868C72.5024 64.8902 72.9619 65.0811 73.0793 65.6411C73.1377 65.9059 73.1171 66.1816 73.0199 66.4354C72.9227 66.6891 72.753 66.9104 72.5309 67.0728C72.4755 67.1158 72.416 67.1524 72.3549 67.1985C72.5298 67.2903 72.6806 67.4204 72.7951 67.5788C72.9096 67.7372 72.9849 67.9193 73.0149 68.111C73.0449 68.3026 73.029 68.4984 72.9682 68.683C72.9073 68.8675 72.8034 69.0357 72.6645 69.1743C72.485 69.3826 72.2634 69.5525 72.0135 69.6733C71.7637 69.7942 71.4911 69.8634 71.2126 69.8767C70.8481 69.9038 70.4829 69.9173 70.1168 69.9173C69.9038 69.9162 69.6917 69.9101 69.4804 69.899L69.4829 69.8982ZM70.542 67.9454C70.5274 68.1721 70.4858 68.3972 70.4499 68.6223C70.4304 68.7456 70.4703 68.8148 70.6056 68.8148C70.7881 68.8148 70.9714 68.8148 71.1539 68.8061C71.3118 68.7836 71.4543 68.7011 71.5502 68.5765C71.646 68.4519 71.6875 68.2954 71.6656 68.1411C71.6477 67.8675 71.4921 67.7553 71.1271 67.7537H70.9877C70.9153 67.7587 70.8426 67.7587 70.7702 67.7537C70.7503 67.7507 70.7301 67.749 70.7099 67.7489C70.5942 67.7497 70.5494 67.8126 70.5388 67.9462L70.542 67.9454ZM71.171 65.8312C70.8231 65.8312 70.8232 65.8312 70.7816 66.1597C70.7831 66.1958 70.7798 66.2318 70.7718 66.2671C70.7131 66.7714 70.7131 66.7714 71.2346 66.7443H71.2567C71.397 66.7336 71.5273 66.6689 71.6189 66.5646C71.7105 66.4602 71.7561 66.3246 71.7455 66.1875C71.7455 65.9354 71.6029 65.8304 71.2567 65.8304L71.171 65.8312ZM35.1401 69.9053C35.0106 69.9053 34.9771 69.8696 34.9942 69.7463C35.1637 68.5558 35.3311 67.3613 35.4962 66.1629C35.4989 66.1204 35.5047 66.0781 35.5133 66.0364C35.5589 65.8773 35.5132 65.824 35.3299 65.8312C35.0521 65.8431 35.0537 65.8312 35.0961 65.5687C35.1311 65.35 35.1718 65.1328 35.1857 64.9109C35.1955 64.7629 35.2673 64.743 35.3944 64.7446C35.6323 64.7446 35.8702 64.7446 36.1114 64.7446C36.2743 64.7446 36.4446 64.7446 36.6132 64.7446H37.7539C37.9489 64.7304 38.1446 64.7563 38.3286 64.8207C38.5126 64.8852 38.6807 64.9866 38.8219 65.1186C38.9632 65.2505 39.0744 65.41 39.1484 65.5866C39.2224 65.7632 39.2575 65.953 39.2515 66.1438C39.2872 66.6244 39.1469 67.1017 38.8556 67.4907C38.5643 67.8796 38.1409 68.155 37.661 68.2676C37.3595 68.3186 37.0522 68.3291 36.7477 68.2986C36.5465 68.2859 36.5032 68.3718 36.4821 68.5372C36.4348 68.9349 36.3704 69.3287 36.3248 69.7303C36.3077 69.8767 36.2491 69.9093 36.1032 69.9093C35.7814 69.895 35.4595 69.9061 35.1377 69.9061L35.1401 69.9053ZM36.8202 66.0285C36.7909 66.3108 36.7493 66.5924 36.7053 66.8756C36.6499 67.2232 36.6491 67.2224 37.0173 67.2224C37.1378 67.2382 37.2605 67.2262 37.3754 67.1875C37.4903 67.1487 37.5943 67.0842 37.6792 66.9992C37.764 66.9141 37.8271 66.8109 37.8638 66.6977C37.9004 66.5846 37.9094 66.4646 37.89 66.3474C37.8979 66.2777 37.8895 66.2072 37.8655 66.1411C37.8416 66.075 37.8026 66.015 37.7517 65.9656C37.7007 65.9162 37.6389 65.8787 37.571 65.8559C37.5031 65.833 37.4309 65.8254 37.3596 65.8336H37.0337C37.0193 65.8328 37.0049 65.8328 36.9905 65.8336C36.865 65.8312 36.8308 65.9052 36.8177 66.0285H36.8202ZM61.5078 69.8926C61.3962 69.8926 61.3546 69.8711 61.3758 69.7455C61.4239 69.4798 61.4492 69.2101 61.4858 68.9397C61.4858 68.8753 61.4981 68.7949 61.5902 68.8061C61.8346 68.8363 61.8736 68.6716 61.916 68.4951C62.1775 67.3019 62.4464 66.1088 62.7006 64.922C62.7332 64.7629 62.796 64.7287 62.9451 64.7343C63.2743 64.7438 63.6031 64.7438 63.9317 64.7343C63.9599 64.7281 63.9891 64.7281 64.0173 64.7341C64.0454 64.7402 64.0719 64.7522 64.0948 64.7693C64.1183 64.7858 64.1378 64.8073 64.1519 64.832C64.1659 64.8568 64.1743 64.8842 64.1762 64.9125C64.3954 65.7596 64.6586 66.5956 64.8411 67.4515C64.8998 67.4618 64.9055 67.4196 64.9226 67.3902C65.3357 66.5383 65.8253 65.7262 66.2693 64.8886C66.2872 64.8387 66.3216 64.796 66.367 64.7672C66.4124 64.7384 66.4663 64.7252 66.5203 64.7295C66.8633 64.7383 67.2072 64.7383 67.5494 64.7295C67.7009 64.7295 67.7319 64.7773 67.7319 64.9077C67.6627 66.1008 67.6023 67.294 67.5347 68.4815C67.5257 68.6597 67.4891 68.8268 67.7669 68.7997C67.8565 68.791 67.8378 68.8609 67.8305 68.9214C67.7922 69.1966 67.749 69.4718 67.723 69.7486C67.7107 69.8632 67.6521 69.8886 67.5404 69.8871H66.5986C66.2327 69.8775 66.1195 69.7582 66.1399 69.4098C66.1798 68.6685 66.2025 67.9247 66.3076 67.189C66.315 67.1412 66.319 67.084 66.3248 67.0299C65.9988 67.6662 65.6134 68.2604 65.2729 68.88C65.2485 68.9408 65.2037 68.9915 65.1458 69.0241C65.0879 69.0566 65.0203 69.0689 64.9543 69.059C64.7353 69.0454 64.5157 69.0454 64.2968 69.059C64.1599 69.059 64.1143 69.0145 64.0736 68.8912C63.8749 68.288 63.7117 67.6743 63.5847 67.053C63.5724 67.0164 63.5552 66.9816 63.5334 66.9495C63.4332 67.7831 63.2319 68.5571 63.073 69.3469C62.9875 69.763 62.8286 69.8831 62.3968 69.8918L61.5078 69.8926ZM31.3995 61.1955C30.2221 61.1955 29.0423 61.2146 27.869 61.1597C26.4667 61.0999 25.0693 60.9578 23.6844 60.7341C20.6252 60.2522 17.6635 59.3005 14.9092 57.9144C11.4164 56.2154 8.34651 53.7911 5.9148 50.8114C3.48308 47.8318 1.74841 44.369 0.832403 40.6657C0.251077 38.4331 -0.0279865 36.1357 0.00221248 33.8322V33.6389C0.0350129 31.9892 0.201955 30.3447 0.5016 28.7208C1.25093 24.6063 2.82592 20.6769 5.13603 17.1586C9.98398 9.64479 17.4645 4.10763 26.1841 1.57872C28.5514 0.871579 30.9905 0.41816 33.4584 0.226492C34.5396 0.138996 35.6118 0.105587 36.6873 0.0960421C36.9979 0.110083 37.3089 0.0833495 37.6121 0.0165195H38.6648C38.6998 0.0626539 38.7528 0.0610386 38.8041 0.0610386H39.7819L41.2533 0.0491442L45.7925 0.106383L51.8691 0.185954C51.9303 0.185241 51.9915 0.1884 52.0524 0.19547C51.8544 0.69738 51.6735 1.19214 51.4674 1.67814C49.9861 5.14618 48.5203 8.61897 47.0106 12.0751C46.7629 12.6172 46.3944 13.0984 45.9319 13.4838C45.4694 13.8691 44.9246 14.1487 44.3373 14.3022C44.0625 14.3768 43.7773 14.408 43.4924 14.3945C41.0277 14.3611 38.5557 14.35 36.0991 14.2895C34.6143 14.2527 33.1319 14.4285 31.6993 14.8113C28.8503 15.5049 26.1911 16.7981 23.9079 18.6004C21.6246 20.4026 19.7724 22.6704 18.4812 25.2449C17.1197 27.7955 16.518 30.6678 16.7442 33.5355C17.2094 39.183 20.1173 43.2564 25.3058 45.7611C27.0372 46.5668 28.9067 47.0522 30.8194 47.1929C31.9348 47.2931 33.0535 47.2788 34.1705 47.3409C35.4269 47.4101 36.6842 47.4411 37.9405 47.4999C38.0019 47.5122 38.0657 47.5002 38.1181 47.4667C38.1704 47.4332 38.207 47.3808 38.2199 47.321C41.5518 38.4621 44.8865 29.6027 48.2238 20.7428C48.4617 20.0384 48.9269 19.4283 49.5499 19.0038C50.1728 18.5794 50.9199 18.3634 51.6792 18.3883H66.0657C66.0743 18.4636 66.0574 18.5396 66.0176 18.6047C61.0073 32.0431 55.9975 45.4806 50.9883 58.9174C50.7519 59.5864 50.3081 60.1669 49.7184 60.5782C49.1286 60.9896 48.4223 61.2115 47.6974 61.213C42.2629 61.2098 36.8288 61.2042 31.3954 61.1963L31.3995 61.1955ZM51.3834 22.546C47.2395 33.5949 43.0872 44.642 38.9264 55.6872C38.6925 56.3092 38.4587 56.9288 38.2208 57.5636H47.5092C47.6607 57.5636 47.6917 57.4968 47.7455 57.3846C51.8193 46.4269 55.8952 35.474 59.9729 24.5258C60.245 23.8099 60.5154 23.094 60.7827 22.3575H51.6646C51.6521 22.3565 51.6396 22.3565 51.6271 22.3575C51.5699 22.3564 51.5141 22.3746 51.469 22.4089C51.424 22.4432 51.3922 22.4916 51.3793 22.546H51.3834ZM53.9158 60.9489C54.2417 60.0063 54.5374 59.0964 54.8576 58.1959C56.5035 53.5507 58.0972 48.88 59.7186 44.2244C59.9094 43.669 60.21 43.1555 60.6034 42.7131C60.8309 42.4846 61.1045 42.3047 61.4069 42.1847C61.7092 42.0648 62.0338 42.0074 62.3601 42.0163C62.5116 42.0068 62.6673 42.0067 62.8205 42.0067H93.8634C94.263 41.986 94.6549 42.1194 94.9547 42.3781C95.2545 42.6369 95.4381 43.0003 95.466 43.39C95.4656 43.6823 95.422 43.9729 95.3365 44.253C95.0399 45.8327 94.7327 47.41 94.4402 48.9882C94.4093 49.1576 94.3588 49.2188 94.1681 49.2188C85.9264 49.2104 77.6852 49.2056 69.4446 49.2045H66.4829C66.4523 49.1984 66.4207 49.1988 66.3902 49.2055C66.3597 49.2122 66.331 49.2252 66.3061 49.2435C66.2809 49.2616 66.2599 49.2845 66.2443 49.311C66.2287 49.3374 66.219 49.3667 66.2156 49.397C65.9011 50.5257 65.5743 51.6496 65.2517 52.7775C65.1808 53.0297 65.1809 53.0297 65.4351 53.0297H75.1537C80.6526 53.0297 86.1531 53.0432 91.6496 53.0186C91.8925 53.0227 92.1317 53.0779 92.3508 53.1806C92.5698 53.2833 92.7635 53.431 92.9186 53.6136C93.0737 53.7962 93.1867 54.0093 93.2496 54.2384C93.3125 54.4675 93.324 54.7072 93.2832 54.9411C92.9304 56.8581 92.611 58.7822 92.2892 60.7031C92.2582 60.8813 92.1922 60.9266 92.0138 60.9266H68.6493C66.8495 60.9266 65.0513 60.902 63.2539 60.9266C61.5486 60.9569 59.8441 60.9521 58.1396 60.9489C56.836 60.9489 55.5258 60.9425 54.2197 60.9553L53.9158 60.9489ZM62.035 38.8824C62.2615 38.347 62.4717 37.8109 62.6966 37.3034C63.1979 36.1617 63.7028 35.023 64.2112 33.8871C64.4039 33.4762 64.6504 33.0914 64.9445 32.7425C65.1914 32.4492 65.5018 32.2127 65.8532 32.0502C66.2047 31.8877 66.5885 31.803 66.9774 31.8023C67.2772 31.7856 67.5771 31.784 67.8736 31.784H97.6945C97.9943 31.784 97.9983 31.784 97.9388 32.0592C97.5586 33.8198 97.1765 35.5779 96.7924 37.3337C96.7168 37.6572 96.532 37.9466 96.2677 38.1553C95.7376 38.6226 95.0493 38.8821 94.3351 38.8839L62.035 38.8824ZM81.9489 28.8664H65.9362C65.6681 28.8664 65.6657 28.8664 65.7537 28.619C67.0809 25.1693 68.4424 21.7299 69.7281 18.2674C70.3628 16.5668 71.0317 14.8726 71.6917 13.1895C71.8361 12.8447 72.0114 12.5131 72.2156 12.1984C72.4192 11.8484 72.7143 11.5575 73.0707 11.3553C73.4271 11.1531 73.8322 11.0468 74.2444 11.0474C74.4278 11.0474 74.6224 11.0387 74.8147 11.0387H99.8405C100.175 11.0167 100.508 11.1041 100.786 11.2872C101.064 11.4702 101.272 11.7385 101.376 12.0496C101.453 12.2811 101.464 12.5284 101.409 12.7655C101.08 14.4386 100.756 16.1137 100.437 17.791C100.402 17.9699 100.325 18.024 100.14 18.024H77.6991C77.6183 18.01 77.5351 18.0271 77.4669 18.0715C77.3988 18.116 77.3508 18.1845 77.3332 18.2627C76.885 19.4009 76.4198 20.5312 75.9644 21.6575C75.8748 21.881 75.8764 21.8826 76.1273 21.8826H97.6455C97.8686 21.8684 98.0921 21.9009 98.3013 21.978C98.5104 22.0551 98.7002 22.175 98.8579 22.3297C99.0258 22.4851 99.1502 22.6797 99.2197 22.8951C99.2891 23.1106 99.3011 23.3397 99.2547 23.5609C98.9136 25.269 98.5768 26.9784 98.2444 28.689C98.2126 28.8481 98.1271 28.8481 98 28.8481C96.3908 28.8481 94.7824 28.8656 93.1732 28.868H87.566L81.9489 28.8664ZM58.2781 14.3301H50.906C50.7235 14.3301 50.6681 14.3054 50.7431 14.1137C52.2053 10.2501 53.6678 6.38439 55.1306 2.51653C55.3694 1.84042 55.8212 1.25534 56.4211 0.844904C57.0211 0.434473 57.7387 0.219713 58.4712 0.231299H72.7298C72.9457 0.231299 72.9432 0.290127 72.8829 0.45637C71.4853 4.29772 70.0885 8.14038 68.6925 11.9844C68.456 12.6824 67.9954 13.2874 67.379 13.7098C66.7626 14.1322 66.0233 14.3494 65.2705 14.3293C63.9592 14.3293 62.6469 14.3293 61.3335 14.3293L58.2781 14.3301ZM58.4003 4.00396C57.7615 5.71147 57.1192 7.41685 56.4734 9.12011L55.8664 10.734C55.9177 10.734 55.9478 10.7435 55.9739 10.7435H65.1646C65.3112 10.7435 65.347 10.6767 65.3861 10.5646C66.1743 8.39043 66.9633 6.21361 67.7531 4.03416C67.8346 3.79553 67.8346 3.79554 67.5958 3.79554H58.6903H58.6553C58.594 3.79473 58.5343 3.81513 58.4869 3.85312C58.4395 3.89112 58.4074 3.94425 58.3962 4.00314L58.4003 4.00396ZM73.969 7.95242C73.7865 7.95242 73.731 7.93096 73.806 7.73847C74.4823 5.909 75.2229 4.1002 75.9473 2.28903C76.1278 1.84258 76.3692 1.42196 76.6651 1.03861C76.882 0.753812 77.1602 0.518944 77.4802 0.350583C77.8001 0.182221 78.1541 0.0844878 78.517 0.0642428C78.5897 0.071216 78.6628 0.0570841 78.7273 0.0236561H103.803C103.824 0.0229402 103.845 0.0189501 103.866 0.0117617C103.928 -0.00573752 104.003 -0.0224526 104 0.109587C103.847 0.666381 103.762 1.23827 103.65 1.80461C103.353 3.28807 103.065 4.7739 102.77 6.25895C102.708 6.56237 102.555 6.84117 102.331 7.06078C102.076 7.34159 101.762 7.56622 101.411 7.71992C101.06 7.87363 100.679 7.95289 100.294 7.95242H73.969ZM38.8041 0.0602618C38.779 0.064443 38.7531 0.0625855 38.7289 0.0548243C38.7046 0.0470632 38.6826 0.033608 38.6648 0.0156942L39.7615 0.0228794C39.7656 0.0365793 39.7726 0.0493053 39.7819 0.0602618H38.8041Z" fill="white"/>
</svg>
