<svg width="113" height="90" viewBox="0 0 113 90" fill="none" xmlns="http://www.w3.org/2000/svg">
<path d="M111.002 61.4148L107.775 60.6629C107.494 59.7421 107.146 58.846 106.736 57.9825L108.52 55.0084C108.675 54.7504 108.743 54.4435 108.712 54.1386C108.682 53.8337 108.554 53.5493 108.351 53.3326L103.326 47.9557C103.124 47.7387 102.858 47.6024 102.573 47.5695C102.288 47.5367 102.001 47.6092 101.76 47.775L98.9805 49.6843C98.1735 49.2452 97.336 48.8735 96.4755 48.5725L95.7754 45.124C95.7147 44.8245 95.5599 44.5563 95.3369 44.3639C95.1139 44.1715 94.8361 44.0666 94.5497 44.0665H87.4395C87.153 44.0666 86.8752 44.1715 86.6523 44.3639C86.4293 44.5563 86.2745 44.8245 86.2137 45.124L85.5109 48.5769C84.6504 48.8779 83.8129 49.2496 83.0059 49.6887L80.2263 47.7794C79.9852 47.6136 79.6984 47.5411 79.4134 47.5739C79.1285 47.6068 78.8627 47.7431 78.6602 47.9601L73.635 53.3355C73.4322 53.5522 73.3048 53.8366 73.2741 54.1415C73.2434 54.4464 73.3112 54.7533 73.4661 55.0113L75.2505 57.9854C74.8417 58.8481 74.4957 59.7432 74.2156 60.6629L70.9885 61.4148C70.7086 61.4799 70.4579 61.6455 70.2782 61.8841C70.0984 62.1227 70.0003 62.4199 70.0002 62.7264V70.3343C70.0003 70.6408 70.0984 70.938 70.2782 71.1766C70.4579 71.4152 70.7086 71.5808 70.9885 71.6458L74.2156 72.3963C74.4969 73.3171 74.8443 74.2132 75.2547 75.0767L73.4702 78.0508C73.3153 78.3088 73.2475 78.6157 73.2782 78.9206C73.3089 79.2255 73.4363 79.5099 73.6391 79.7266L78.667 85.1065C78.8695 85.3235 79.1354 85.4597 79.4203 85.4926C79.7052 85.5255 79.9921 85.4529 80.2332 85.2871L83.0128 83.3778C83.8198 83.8169 84.6573 84.1886 85.5178 84.4896L86.2192 87.9425C86.28 88.242 86.4348 88.5103 86.6578 88.7026C86.8807 88.895 87.1585 88.9999 87.445 89H94.5552C94.8416 88.9999 95.1194 88.895 95.3424 88.7026C95.5654 88.5103 95.7201 88.242 95.7809 87.9425L96.4824 84.4896C97.3429 84.1886 98.1804 83.8169 98.9874 83.3778L101.767 85.2871C102.008 85.4529 102.295 85.5255 102.58 85.4926C102.865 85.4597 103.131 85.3235 103.333 85.1065L108.361 79.7266C108.564 79.5099 108.691 79.2255 108.722 78.9206C108.753 78.6157 108.685 78.3088 108.53 78.0508L106.745 75.0767C107.156 74.2132 107.503 73.3171 107.785 72.3963L111.012 71.6458C111.292 71.5808 111.542 71.4152 111.722 71.1766C111.902 70.938 112 70.6408 112 70.3343V62.7264C111.999 62.4185 111.9 62.1201 111.718 61.8813C111.537 61.6425 111.284 61.4778 111.002 61.4148ZM98.5235 66.5377C98.5221 68.1306 98.0793 69.6873 97.2511 71.011C96.4229 72.3347 95.2465 73.3659 93.8706 73.9743C92.4947 74.5826 90.9811 74.7407 89.5212 74.4286C88.0613 74.1165 86.7207 73.3482 85.6689 72.2209C84.617 71.0936 83.9012 69.6579 83.6119 68.0954C83.3227 66.5328 83.4729 64.9135 84.0437 63.4423C84.6145 61.9711 85.5802 60.714 86.8186 59.83C88.0571 58.946 89.5127 58.4748 91.0015 58.476C92.9973 58.4802 94.9101 59.3314 96.3203 60.8427C97.7304 62.354 98.5227 64.4021 98.5235 66.5377Z" fill="#FFC60C" stroke="#08112A"/>
<path d="M85.2572 74.2586C85.0227 74.025 84.8379 73.7402 84.7154 73.4234C84.593 73.1066 84.5358 72.7653 84.5476 72.4227C84.5555 71.9332 84.6662 71.4519 84.8714 71.0144C85.0767 70.5768 85.3714 70.1943 85.7335 69.8951C86.0971 69.5938 86.5186 69.3828 86.9677 69.2771C87.4169 69.1714 87.8823 69.1738 88.3305 69.2841C88.6172 69.3559 88.8877 69.488 89.1262 69.6727C89.3648 69.8575 89.5666 70.0912 89.7199 70.3602C89.8732 70.6292 89.9749 70.9281 90.0191 71.2396C90.0634 71.5511 90.0492 71.8689 89.9776 72.1745C89.8461 72.92 89.4817 73.5956 88.9443 74.0903C88.4068 74.5851 87.7282 74.8697 87.0197 74.8975C86.9442 74.9048 86.87 74.9092 86.7958 74.9092C86.2246 74.9076 85.6751 74.6752 85.2572 74.2586ZM87.0416 70.5487C86.6938 70.6765 86.3942 70.9218 86.1879 71.2476C85.9817 71.5734 85.8801 71.9621 85.8982 72.3552C85.9007 72.5927 85.9643 72.8249 86.082 73.0263C86.1998 73.2277 86.3672 73.3904 86.5658 73.4967C86.7644 73.6029 86.9865 73.6485 87.2077 73.6285C87.4289 73.6085 87.6408 73.5237 87.8199 73.3833C88.0604 73.231 88.2624 73.0184 88.4087 72.7637C88.5551 72.5091 88.6413 72.2202 88.6599 71.9219C88.6802 71.7418 88.6652 71.5592 88.6157 71.3857C88.5662 71.2122 88.4833 71.0518 88.3724 70.9146C88.2615 70.7774 88.1251 70.6665 87.9718 70.5891C87.8185 70.5117 87.6516 70.4694 87.4821 70.465C87.3325 70.4692 87.1845 70.4979 87.043 70.5502L87.0416 70.5487ZM75.0365 74.8902C74.8542 74.8799 74.6733 74.8519 74.4958 74.8064C74.1022 74.7124 73.7569 74.4613 73.5302 74.1044C73.3035 73.7475 73.2124 73.3116 73.2755 72.8854C73.3523 72.1716 73.4554 71.4622 73.5501 70.7514C73.5858 70.4797 73.5719 70.4459 73.3194 70.4576C73.1396 70.4679 73.1121 70.3959 73.1396 70.2329C73.1808 69.9685 73.2111 69.7027 73.2426 69.4398C73.255 69.3282 73.2948 69.2812 73.4073 69.2929C73.5872 69.3032 73.782 69.2929 73.9673 69.2929L73.9769 69.3047C74.1786 69.3047 74.3887 69.2915 74.5823 69.3047C74.8952 69.3296 75.0092 69.4707 74.9735 69.8026C74.9117 70.3622 74.8362 70.9232 74.7662 71.4827C74.7182 71.8837 74.6578 72.2847 74.6166 72.6871C74.5644 73.1909 74.6866 73.4523 75.005 73.5771C75.2027 73.6518 75.4175 73.6565 75.6179 73.5907C75.8183 73.5249 75.9938 73.3919 76.1183 73.2114C76.2234 73.0198 76.2849 72.8045 76.298 72.5828C76.4147 71.6663 76.5286 70.7484 76.6481 69.8349C76.6934 69.4971 76.8389 69.3282 77.1491 69.312C77.3687 69.2988 77.5882 69.3003 77.8092 69.3018C77.9918 69.3018 78.1758 69.3018 78.3583 69.3018C78.4366 69.3018 78.4804 69.3267 78.4681 69.4222C78.4283 69.7321 78.3886 70.0405 78.3543 70.3533C78.3406 70.4738 78.2636 70.4664 78.173 70.4679C77.8532 70.4679 77.8505 70.4826 77.8134 70.8277C77.7324 71.4872 77.657 72.1496 77.5609 72.8031C77.4797 73.3901 77.2035 73.926 76.783 74.3129C76.3625 74.6997 75.8258 74.9114 75.2713 74.9092C75.1935 74.9092 75.1152 74.9034 75.0365 74.8916V74.8902ZM80.4117 74.7595C79.8897 74.5919 79.4452 74.2213 79.1658 73.7206C78.8863 73.2199 78.7921 72.6253 78.9019 72.0541C78.99 71.2806 79.3352 70.5668 79.8745 70.0431C80.4139 69.5194 81.1113 69.2208 81.8393 69.2019C82.3236 69.1656 82.808 69.2707 83.2408 69.5059C83.4298 69.5858 83.5865 69.7344 83.6831 69.9257C83.7798 70.117 83.8103 70.3386 83.7692 70.5516C83.7116 71.2052 83.7116 71.2052 83.0953 71.2052H82.9155C82.8029 71.2267 82.6871 71.2217 82.5764 71.1905C82.4886 71.1391 82.5764 70.9746 82.5545 70.8615C82.5352 70.6706 82.4173 70.6089 82.28 70.5516C82.0056 70.4549 81.7112 70.4427 81.4307 70.5164C81.1501 70.5902 80.8945 70.7469 80.6932 70.9687C80.5084 71.1795 80.3742 71.4353 80.3025 71.7139C80.2307 71.9926 80.2235 72.2858 80.2814 72.5681C80.3137 72.7566 80.3841 72.9352 80.4878 73.0915C80.5915 73.2477 80.7259 73.3777 80.8816 73.4725C81.0372 73.5673 81.2104 73.6244 81.3889 73.64C81.5674 73.6555 81.747 73.629 81.9149 73.5625C82.3286 73.4494 82.7112 73.2324 83.0308 72.9295C83.1983 73.2364 83.356 73.5346 83.5221 73.8283C83.5715 73.912 83.5221 73.9502 83.4782 73.9972C82.8788 74.5612 82.113 74.8815 81.315 74.9019C81.0093 74.9011 80.7052 74.8541 80.4117 74.7624V74.7595ZM45.3219 74.8211C45.0145 74.802 44.7029 74.8094 44.3927 74.8211C44.2554 74.8211 44.2266 74.7873 44.2472 74.6302C44.427 73.3084 44.582 71.9865 44.7591 70.6647C44.7811 70.5002 44.7591 70.4561 44.5957 70.462C44.3212 70.4708 44.3212 70.462 44.3528 70.1595C44.3816 69.9186 44.4174 69.6763 44.4421 69.4339C44.4421 69.3385 44.4846 69.3003 44.5793 69.3003C45.4029 69.3003 46.2266 69.2694 47.0419 69.3194C47.2728 69.3081 47.5024 69.3609 47.7086 69.4725C47.9148 69.5841 48.0906 69.7507 48.219 69.9563C48.3474 70.1619 48.4241 70.3995 48.4415 70.6461C48.4589 70.8927 48.4164 71.1399 48.3183 71.3638C48.2515 71.6025 48.1399 71.824 47.9903 72.015C47.8406 72.2059 47.6561 72.3622 47.4481 72.4742C47.7473 72.7018 47.7913 73.0616 47.9162 73.3877C47.9794 73.5521 48.0631 73.6653 48.2456 73.6521C48.3554 73.6521 48.376 73.6917 48.3596 73.7989C48.3143 74.0926 48.2828 74.3732 48.2498 74.6625C48.2388 74.7594 48.214 74.8197 48.1124 74.8094C47.853 74.7991 47.5936 74.7976 47.337 74.7903C47.2243 74.7907 47.1145 74.752 47.0241 74.68C46.9338 74.6079 46.8678 74.5065 46.836 74.3908C46.6987 74.0089 46.5614 73.6256 46.4159 73.2437C46.3706 73.1263 46.286 73.0312 46.1786 72.9769C46.0713 72.9226 45.9489 72.913 45.8353 72.95C45.7475 72.9764 45.7612 73.0514 45.7515 73.1145C45.6884 73.6065 45.6253 74.1 45.5718 74.5935C45.5553 74.7403 45.5114 74.8196 45.3618 74.8196L45.3219 74.8211ZM46.4201 70.462C46.0756 70.462 46.0782 70.462 46.0384 70.8057C46.0206 70.9643 46.0013 71.1229 45.9752 71.2815C45.8915 71.8279 45.9039 71.8411 46.4296 71.7897C46.5428 71.7706 46.6504 71.7238 46.744 71.653C46.8375 71.5822 46.9145 71.4893 46.969 71.3814C47.0232 71.2742 47.0534 71.1549 47.057 71.033C47.0606 70.9111 47.0374 70.7901 46.9896 70.6794C46.9596 70.6176 46.915 70.5653 46.8604 70.5274C46.8058 70.4896 46.7431 70.4675 46.6781 70.4635C46.6397 70.4612 46.6013 70.4612 46.5629 70.4635L46.4201 70.462ZM41.1752 74.8138H40.0099C39.5981 74.8138 39.4704 74.6434 39.5253 74.2072C39.6749 73.0322 39.8218 71.8573 39.9824 70.6911C40.0112 70.4826 39.9467 70.4312 39.7738 70.462C39.572 70.4987 39.5226 70.4106 39.5596 70.2094C39.6008 69.97 39.6255 69.7262 39.6516 69.4839C39.6654 69.3502 39.7092 69.2929 39.8534 69.2929C40.3722 69.2929 40.8829 69.2929 41.41 69.2929H42.8992C43.3288 69.2929 43.4401 69.428 43.4031 69.8804C43.3756 70.1741 43.3261 70.4679 43.2931 70.7616C43.2808 70.8762 43.252 70.9335 43.1258 70.9276C42.8375 70.9158 42.5492 70.9188 42.261 70.9276C42.1333 70.9276 42.1045 70.8938 42.1238 70.7572C42.1704 70.4723 42.1525 70.4547 41.878 70.4635C41.6968 70.4635 41.458 70.3827 41.3372 70.4973C41.2165 70.6118 41.2603 70.8674 41.2329 71.0715C41.1793 71.4637 41.1793 71.4637 41.5417 71.4637H42.5135C42.6274 71.4637 42.6604 71.493 42.6412 71.6223C42.5959 71.8984 42.5644 72.1804 42.5383 72.4609C42.5259 72.6078 42.4641 72.6328 42.3419 72.6313H41.1985C41.075 72.6313 41.0188 72.6562 41.0092 72.8002C40.9954 73.0205 40.9612 73.2408 40.9296 73.4582C40.909 73.605 40.9652 73.6696 41.1107 73.6667C41.3125 73.6667 41.5142 73.6564 41.7146 73.6667C41.915 73.677 41.9769 73.5639 41.9741 73.3891C41.9714 73.2144 42.0386 73.1864 42.1841 73.1982C42.4586 73.2099 42.7249 73.1982 43.0076 73.1982C43.1119 73.1982 43.1697 73.2129 43.145 73.3451C43.097 73.6829 43.0639 74.0251 43.0076 74.3644C43.0008 74.4325 42.9814 74.4984 42.9505 74.5584C42.9196 74.6184 42.878 74.6713 42.8278 74.7139C42.7774 74.7566 42.7196 74.7883 42.6576 74.8069C42.5956 74.8256 42.5308 74.8309 42.4669 74.8226C42.3228 74.8226 42.1786 74.83 42.0345 74.83C41.7503 74.8226 41.4621 74.8153 41.1752 74.8153V74.8138ZM54.9523 74.6933C54.9962 74.3834 55.0374 74.0721 55.0731 73.7622C55.0841 73.6858 55.1143 73.6491 55.1857 73.6579C55.3655 73.677 55.4176 73.5507 55.4807 73.4156C56.0847 72.1143 56.6927 70.816 57.2925 69.5132C57.3119 69.4404 57.3561 69.378 57.4164 69.3383C57.4766 69.2986 57.5485 69.2845 57.6179 69.2988C57.7685 69.3047 57.9192 69.3023 58.0695 69.2914H58.3714C58.7462 69.2914 58.7462 69.2915 58.8259 69.6733C59.0857 70.9158 59.3475 72.1594 59.611 73.4038C59.6385 73.5375 59.6576 73.6653 59.8278 73.655C59.9253 73.655 59.9294 73.7122 59.9198 73.7886C59.8828 74.0926 59.8443 74.3952 59.8086 74.6992C59.7976 74.7771 59.7675 74.8211 59.6824 74.8182C59.3955 74.8182 59.1086 74.8182 58.8203 74.8035C58.7179 74.8041 58.619 74.7637 58.5429 74.6904C58.4667 74.6171 58.4189 74.516 58.4086 74.4069C58.3688 74.2057 58.329 74.0031 58.296 73.8004C58.2782 73.6917 58.237 73.6535 58.1245 73.6535H56.8891C56.8467 73.6473 56.8036 73.6576 56.7676 73.6824C56.7316 73.7071 56.7052 73.7448 56.6929 73.7886C56.605 74.0045 56.5034 74.216 56.4087 74.429C56.3667 74.5414 56.2945 74.6378 56.2011 74.7061C56.1077 74.7743 55.9973 74.8113 55.8842 74.8123C55.6097 74.8123 55.3243 74.8123 55.0429 74.824C54.9606 74.8211 54.9413 74.78 54.9523 74.6948V74.6933ZM57.1841 72.5285H58.0077C58.0667 72.5285 58.145 72.5535 58.1189 72.4286C58.0325 71.8911 57.9377 71.3506 57.876 70.7939C57.6756 71.3844 57.4093 71.944 57.1828 72.5314L57.1841 72.5285ZM53.4781 74.8138C53.2383 74.7939 52.9973 74.7939 52.7574 74.8138C52.6991 74.8217 52.64 74.8079 52.59 74.7747C52.5401 74.7416 52.5023 74.6911 52.483 74.6317C52.0382 73.6579 51.5221 72.7224 51.1104 71.7281C51.0541 72.5726 50.9168 73.4009 50.8111 74.2337C50.8135 74.3156 50.7991 74.3971 50.7689 74.4725C50.7386 74.5479 50.6934 74.6152 50.6362 74.6699C50.579 74.7245 50.5112 74.765 50.4378 74.7886C50.3644 74.8122 50.2871 74.8183 50.2112 74.8064C49.8502 74.8167 49.4906 74.8064 49.131 74.8064C48.9937 74.8064 48.9732 74.755 48.9938 74.6317C49.0331 74.3595 49.0674 74.0868 49.0967 73.8136C49.109 73.6829 49.1571 73.6359 49.2875 73.6374C49.5922 73.6374 49.6004 73.6182 49.6471 73.2937C49.8063 72.013 49.9696 70.7337 50.1261 69.4545C50.144 69.3076 50.2044 69.2827 50.3252 69.2841C50.5997 69.2841 50.8866 69.2944 51.168 69.2841C51.217 69.2776 51.2665 69.2894 51.3082 69.3175C51.35 69.3456 51.3815 69.3883 51.3972 69.4383C51.8461 70.4194 52.3676 71.3638 52.7588 72.3757L52.7987 72.408C52.8316 71.5856 52.9784 70.7851 53.0649 69.9788C53.1226 69.4413 53.2777 69.2915 53.7856 69.2885H54.7794C54.8988 69.2885 54.9303 69.3253 54.9166 69.4486C54.8713 69.7277 54.8288 70.0067 54.8068 70.2872C54.7945 70.4341 54.7368 70.4576 54.616 70.4576C54.3113 70.4576 54.3113 70.4576 54.2728 70.7837C54.1136 72.0321 53.9517 73.2805 53.7993 74.5318C53.7773 74.7154 53.7348 74.8255 53.5646 74.8255L53.4781 74.8138ZM68.4493 74.8035C68.0677 74.8035 67.9525 74.6405 68.0046 74.2043C68.1035 73.37 68.2132 72.5402 68.3203 71.7075C68.3656 71.3447 68.4109 70.9819 68.4644 70.6192C68.4864 70.4841 68.4466 70.4488 68.3272 70.4488C68.0128 70.4488 68.0129 70.4488 68.0527 70.108C68.0816 69.8877 68.1116 69.6675 68.1363 69.4486C68.1459 69.3444 68.1748 69.2826 68.2928 69.2856C68.6072 69.2856 68.9215 69.2856 69.2358 69.2856C69.7341 69.2856 70.2311 69.2856 70.7348 69.3076C70.7993 69.31 70.8635 69.3173 70.927 69.3296C71.4308 69.4398 71.8878 69.6439 71.999 70.2432C72.0557 70.5267 72.0348 70.8217 71.9389 71.0928C71.843 71.364 71.6761 71.5998 71.4582 71.7721C71.4046 71.8176 71.3443 71.8602 71.2852 71.9057C71.4572 72.0027 71.6055 72.1415 71.7184 72.3109C71.8312 72.4802 71.9054 72.6756 71.935 72.8812C71.9646 73.0868 71.9489 73.2969 71.8889 73.4948C71.829 73.6927 71.7265 73.8727 71.5899 74.0207C71.4122 74.244 71.1936 74.426 70.9476 74.5553C70.7016 74.6847 70.4334 74.7587 70.1596 74.7727C69.8 74.802 69.4399 74.8167 69.0793 74.8167C68.8698 74.8197 68.6594 74.8162 68.448 74.8064L68.4493 74.8035ZM69.4925 72.7135C69.4774 72.9559 69.4362 73.1967 69.4019 73.4376C69.3827 73.5698 69.4226 73.6432 69.5557 73.6432C69.7355 73.6432 69.9166 73.6432 70.0964 73.6344C70.2514 73.6111 70.3914 73.523 70.4858 73.3895C70.5802 73.256 70.6214 73.088 70.6003 72.9221C70.5824 72.6284 70.4287 72.5094 70.0691 72.5079H69.9317C69.8604 72.5133 69.7889 72.5133 69.7176 72.5079C69.6979 72.5063 69.6782 72.5063 69.6586 72.5079C69.546 72.5064 69.5022 72.574 69.4912 72.7165L69.4925 72.7135ZM70.1117 70.4517C69.7699 70.4517 69.7698 70.4518 69.7286 70.8028C69.7301 70.8412 69.7269 70.8798 69.7191 70.9173C69.6614 71.4563 69.6613 71.4563 70.1747 71.4255H70.1966C70.3327 71.4145 70.4595 71.3468 70.5493 71.237C70.6392 71.1271 70.6851 70.9838 70.6772 70.838C70.6772 70.5678 70.5399 70.4561 70.1981 70.4561L70.1117 70.4517ZM34.6169 74.8109C34.4892 74.8109 34.4561 74.7726 34.4795 74.6404C34.646 73.3676 34.8109 72.0893 34.9738 70.8057C34.9764 70.7603 34.9818 70.7152 34.9902 70.6706C35.0355 70.4988 34.9902 70.4429 34.8091 70.4502C34.5345 70.4635 34.5344 70.4503 34.5783 70.1698C34.6126 69.9362 34.6526 69.7027 34.6663 69.4662C34.6759 69.3076 34.7458 69.2871 34.8721 69.2885C35.1068 69.2885 35.3415 69.2885 35.579 69.2885H37.1974C37.3884 69.2731 37.5802 69.3006 37.7606 69.3693C37.941 69.4379 38.106 69.5462 38.245 69.6871C38.384 69.8281 38.4938 69.9986 38.5675 70.1877C38.6412 70.3768 38.6771 70.5803 38.6729 70.7851C38.7069 71.3014 38.568 71.8137 38.281 72.2303C37.994 72.6469 37.5777 72.9406 37.1068 73.0587C36.8094 73.1131 36.5064 73.124 36.2063 73.091C36.0073 73.0778 35.9633 73.1688 35.9441 73.3451C35.8974 73.7695 35.8344 74.1911 35.7891 74.6184C35.7726 74.7756 35.7149 74.8094 35.5708 74.8094C35.2509 74.802 34.9339 74.8138 34.6169 74.8138V74.8109ZM36.2722 70.6618C36.2433 70.9643 36.2022 71.2654 36.1582 71.568C36.1033 71.9395 36.1019 71.938 36.4657 71.938C36.5837 71.9556 36.7039 71.9434 36.8167 71.9024C36.9295 71.8613 37.032 71.7926 37.1155 71.7017C37.199 71.6107 37.2614 71.5001 37.2978 71.3787C37.3342 71.2573 37.3434 71.1284 37.3249 71.0025C37.3325 70.9276 37.3241 70.8518 37.3005 70.7808C37.2768 70.7098 37.2385 70.6454 37.1884 70.5925C37.1382 70.5395 37.0776 70.4994 37.0109 70.475C36.9443 70.4506 36.8733 70.4427 36.8033 70.4517H36.4808H36.4382C36.3174 70.4532 36.2846 70.5325 36.2708 70.6647L36.2722 70.6618ZM60.5924 74.7976C60.4826 74.7976 60.4415 74.7741 60.4621 74.6404C60.5087 74.3555 60.5348 74.0677 60.5705 73.7784C60.5705 73.7093 60.5827 73.6241 60.6733 73.6315C60.9163 73.6638 60.9479 73.4846 60.9919 73.2981C61.2499 72.0233 61.5135 70.7484 61.7646 69.4795C61.7976 69.3106 61.858 69.2723 62.0063 69.2782C62.3302 69.2885 62.6541 69.2885 62.9781 69.2782C63.0056 69.2719 63.034 69.2721 63.0615 69.2787C63.089 69.2853 63.1149 69.2981 63.1373 69.3164C63.159 69.3337 63.1771 69.3557 63.1904 69.381C63.2036 69.4064 63.2118 69.4344 63.2142 69.4633C63.4297 70.3695 63.689 71.2639 63.8688 72.1804C63.9265 72.1921 63.932 72.1466 63.9471 72.1158C64.3589 71.2037 64.8366 70.3357 65.2745 69.4398C65.2927 69.3868 65.3268 69.3418 65.3715 69.3117C65.4162 69.2817 65.4691 69.2684 65.5216 69.2738C65.8593 69.2826 66.1982 69.2826 66.5345 69.2738C66.6841 69.2738 66.7143 69.3252 66.7143 69.4648C66.6456 70.7396 66.5867 72.0159 66.5194 73.2834C66.5112 73.4743 66.4741 73.652 66.7486 73.6241C66.8365 73.6153 66.8187 73.6887 66.8118 73.7548C66.7747 74.0486 66.7349 74.3423 66.7061 74.6361C66.6937 74.758 66.6361 74.7829 66.5263 74.7829H65.5984C65.2387 74.7727 65.1262 74.6449 65.1468 74.2718C65.1866 73.4787 65.2085 72.6827 65.3115 71.8955C65.3184 71.8441 65.3224 71.7824 65.3279 71.7221C65.0095 72.4022 64.6279 73.044 64.2916 73.702C64.267 73.7668 64.2228 73.8209 64.1661 73.8555C64.1093 73.8901 64.0434 73.9033 63.9787 73.8929C63.763 73.8783 63.5465 73.8783 63.3308 73.8929C63.1935 73.8929 63.1509 73.8459 63.1111 73.7122C62.9145 73.0672 62.7529 72.4106 62.6267 71.7457C62.6145 71.7067 62.5973 71.6696 62.5758 71.6355C62.477 72.5285 62.2794 73.3568 62.1215 74.2013C62.0364 74.642 61.8827 74.7756 61.4558 74.7888L60.5924 74.7976ZM30.9313 65.4905C29.7714 65.4905 28.6102 65.511 27.4545 65.4523C26.0746 65.3882 24.6995 65.2361 23.3366 64.997C20.3241 64.482 17.4059 63.4635 14.689 61.9788C11.2583 60.1727 8.2393 57.5842 5.84413 54.3954C3.44896 51.2066 1.73585 47.495 0.825457 43.5216C0.250926 41.1335 -0.0259651 38.6747 0.00191328 36.2089V36.0019C0.0341356 34.2365 0.198506 32.4768 0.493358 30.7395C1.2332 26.3323 2.78501 22.1265 5.05862 18.3672C9.85739 10.3087 17.2243 4.38551 25.7935 1.69592C28.1267 0.939602 30.5296 0.455046 32.9601 0.250706C34.0252 0.15671 35.0822 0.121504 36.1405 0.111223C36.4463 0.127271 36.7528 0.099567 37.0518 0.028931H38.0895C38.1238 0.0788669 38.1761 0.0759037 38.2269 0.0759037H39.1877L40.6372 0.0627262L45.1091 0.1244L51.0953 0.206692C51.1558 0.205911 51.2163 0.209284 51.2764 0.216911C51.0815 0.754456 50.903 1.28321 50.6998 1.80313C49.2407 5.51454 47.7968 9.23038 46.3075 12.9286C46.0617 13.51 45.6977 14.0255 45.2423 14.4376C44.7869 14.8497 44.2515 15.148 43.6748 15.3108C43.4042 15.3904 43.1233 15.4236 42.8429 15.4092C40.4147 15.3724 37.9798 15.3622 35.5599 15.2961C34.0978 15.2566 32.6379 15.4446 31.2264 15.8542C28.4278 16.5894 25.813 17.9691 23.5641 19.8969C21.3153 21.8248 19.4866 24.2544 18.2057 27.0163C16.8648 29.742 16.2715 32.8178 16.4941 35.8888C16.6281 38.6919 17.4879 41.3999 18.9774 43.7103C20.4669 46.0207 22.5273 47.8424 24.9287 48.972C26.6363 49.834 28.4774 50.3527 30.3602 50.5023C31.4584 50.6096 32.5565 50.5949 33.6615 50.661C34.8968 50.7359 36.1323 50.7682 37.3759 50.8269C37.4359 50.84 37.4983 50.8274 37.5496 50.7917C37.601 50.7559 37.6371 50.7 37.6503 50.636C40.9327 41.156 44.218 31.6755 47.5059 22.1946C47.7436 21.438 48.2034 20.7839 48.8168 20.3297C49.4303 19.8756 50.1645 19.6457 50.91 19.6743H65.0823C65.091 19.7551 65.0747 19.8366 65.0357 19.9063L50.229 63.0451C49.9935 63.7639 49.5551 64.3865 48.9742 64.8268C48.3933 65.267 47.6988 65.5031 46.9869 65.5022C41.6346 65.5071 36.2823 65.5042 30.9299 65.4934L30.9313 65.4905ZM50.6189 24.1318C46.5367 35.9549 42.4458 47.776 38.3462 59.5951C38.1156 60.2604 37.885 60.9169 37.6517 61.6028H46.803C46.9526 61.6028 46.9828 61.5308 47.0364 61.4119C51.0481 49.6858 55.0631 37.9651 59.0812 26.2497C59.3557 25.4875 59.6164 24.7208 59.8786 23.9291H50.8962H50.8592C50.8027 23.9281 50.7477 23.948 50.7034 23.9855C50.6591 24.023 50.6283 24.0757 50.6162 24.1348L50.6189 24.1318ZM53.113 65.2261C53.4301 64.2171 53.7252 63.2433 54.0409 62.2799C55.662 57.3083 57.2323 52.3118 58.83 47.3285C59.0187 46.734 59.3147 46.185 59.7015 45.7129C59.9265 45.4678 60.1964 45.2751 60.4942 45.1467C60.7921 45.0183 61.1116 44.9571 61.4325 44.9668C61.5822 44.9565 61.7345 44.9565 61.8854 44.9565H92.4648C92.857 44.9322 93.2425 45.0738 93.538 45.3508C93.8335 45.6277 94.0155 46.0178 94.0447 46.437C94.0443 46.75 94.0013 47.0612 93.917 47.3608C93.6246 49.0513 93.3228 50.7388 93.0331 52.4278C93.003 52.6099 92.9534 52.6746 92.7585 52.6746C84.639 52.6657 76.5205 52.6609 68.4027 52.6599H65.4844C65.4542 52.6535 65.4231 52.654 65.3931 52.6613C65.3631 52.6687 65.3348 52.6827 65.3102 52.7025C65.2854 52.7217 65.2647 52.7463 65.2493 52.7746C65.234 52.803 65.2242 52.8344 65.2208 52.867C64.9106 54.0757 64.5882 55.2771 64.2711 56.4844C64.2011 56.7546 64.2011 56.7546 64.4523 56.7546H74.0263C79.4441 56.7546 84.8618 56.7693 90.2768 56.7429C90.5152 56.7451 90.7503 56.8025 90.9658 56.9114C91.1814 57.0202 91.3724 57.1778 91.5255 57.3733C91.6786 57.5688 91.7901 57.7976 91.8525 58.0437C91.915 58.2899 91.9266 58.5476 91.8869 58.7991C91.5396 60.8552 91.2239 62.9114 90.9069 64.9676C90.8767 65.1585 90.8122 65.207 90.6324 65.207H67.6147C65.8413 65.207 64.0693 65.1806 62.3 65.207C60.6199 65.2393 58.9411 65.2349 57.261 65.2305C55.9735 65.2305 54.686 65.2305 53.3985 65.2305L53.113 65.2261ZM61.1113 41.6123C61.3351 41.0395 61.5423 40.4653 61.7633 39.9218C62.2574 38.6999 62.7548 37.4813 63.2554 36.2662C63.4449 35.8262 63.687 35.4144 63.9759 35.0413C64.2204 34.7268 64.5266 34.4737 64.8727 34.2998C65.2187 34.126 65.5962 34.0357 65.9785 34.0353C66.2737 34.0177 66.5688 34.0162 66.8652 34.0162H96.2395C96.5346 34.0162 96.5388 34.0162 96.4798 34.3099C96.1046 36.1938 95.7281 38.0752 95.3501 39.9542C95.2755 40.3019 95.093 40.6125 94.8326 40.8353C94.3087 41.3362 93.6313 41.6137 92.9288 41.6152L61.1113 41.6123ZM80.7289 30.8908H64.9533C64.6883 30.8908 64.687 30.8908 64.7735 30.6264C66.0802 26.9341 67.4184 23.255 68.6881 19.5495C69.3126 17.7297 69.9757 15.9174 70.6222 14.1153C70.7645 13.7461 70.9372 13.3913 71.1383 13.0549C71.3403 12.6792 71.6316 12.3674 71.9826 12.151C72.3336 11.9346 72.7318 11.8213 73.1369 11.8227C73.3181 11.8227 73.5102 11.8138 73.6969 11.8138H98.3507C98.6789 11.7901 99.005 11.8835 99.2782 12.0794C99.5514 12.2753 99.7563 12.5625 99.8606 12.8962C99.9364 13.1433 99.9477 13.4079 99.8934 13.6614C99.5695 15.4513 99.2493 17.2441 98.9327 19.0399C98.8984 19.2308 98.8228 19.2881 98.6403 19.2881H76.5328C76.4536 19.2726 76.372 19.2904 76.3047 19.3377C76.2375 19.385 76.1898 19.4582 76.1717 19.5421C75.7297 20.7597 75.2712 21.9699 74.8224 23.1743C74.7345 23.4137 74.7359 23.4151 74.9844 23.4151H96.1819C96.4012 23.3996 96.6211 23.4341 96.827 23.5164C97.0329 23.5987 97.22 23.7268 97.3761 23.8924C97.5418 24.0582 97.6649 24.267 97.7335 24.4985C97.802 24.7301 97.8136 24.9765 97.7673 25.2142C97.4315 27.0423 97.0998 28.8713 96.7722 30.7014C96.7406 30.8717 96.6568 30.8732 96.5319 30.8732C94.9465 30.8732 93.3625 30.8923 91.7771 30.8952H80.7192L80.7289 30.8908ZM57.4093 15.3357H50.1467C49.9669 15.3357 49.912 15.3093 49.9847 15.1052C51.425 10.9703 52.8659 6.83343 54.3072 2.69463C54.5456 1.96916 54.9915 1.34244 55.5816 0.903483C56.1717 0.464525 56.8761 0.235667 57.5946 0.249272H71.6435C71.8562 0.249272 71.8535 0.312429 71.7944 0.490141C70.4218 4.60251 69.046 8.71482 67.667 12.8272C67.4304 13.5763 66.9752 14.2244 66.3686 14.676C65.762 15.1276 65.0358 15.3588 64.2971 15.3357H60.4182H57.4093ZM57.5301 4.28524C56.9006 6.11231 56.2677 7.93746 55.6317 9.7606L55.0332 11.4877C55.084 11.4877 55.1129 11.4981 55.1389 11.4981H64.1982C64.3424 11.4981 64.3781 11.4261 64.4166 11.3071C65.1935 8.97776 65.9712 6.6484 66.75 4.31904C66.8337 4.06642 66.8338 4.06643 66.595 4.06643H57.8225H57.7882C57.7272 4.06469 57.6676 4.08643 57.6203 4.12765C57.5729 4.16888 57.5409 4.22688 57.5301 4.29116V4.28524ZM72.8678 8.51072C72.688 8.51072 72.6331 8.48721 72.7044 8.28159C73.3702 6.32088 74.1004 4.38802 74.8142 2.4508C74.9922 1.97266 75.23 1.52264 75.5211 1.11289C75.7359 0.807493 76.0104 0.555957 76.3255 0.375847C76.6406 0.195738 76.9886 0.0913642 77.3453 0.0700769C77.4169 0.0773958 77.489 0.0620335 77.5525 0.0259728H102.26C102.281 0.0250783 102.302 0.0206579 102.322 0.0127954C102.383 -0.00629775 102.459 -0.0239458 102.459 0.11705C102.308 0.714811 102.224 1.32577 102.113 1.93087C101.821 3.51854 101.537 5.10917 101.247 6.69537C101.185 7.02046 101.034 7.31872 100.815 7.55307C100.562 7.85391 100.253 8.09454 99.9084 8.25927C99.5633 8.424 99.1897 8.50914 98.8119 8.5092L72.8678 8.51072ZM38.2254 0.0656844C38.2007 0.0701947 38.1754 0.0682163 38.1515 0.0600369C38.1276 0.0518576 38.1058 0.0376533 38.0882 0.0186221L39.1684 0.0259728C39.1726 0.0405597 39.1797 0.0541134 39.189 0.0656844H38.2254Z" fill="white"/>
</svg>
