<svg width="177" height="56" viewBox="0 0 177 56" fill="none" xmlns="http://www.w3.org/2000/svg">
<path d="M46.4157 56C46.1567 55.9998 45.9011 55.9407 45.6681 55.8275L45.8186 55.3832C46.0007 55.4734 46.2022 55.5176 46.4053 55.512C46.6467 55.512 46.8406 55.4286 46.8406 55.2173C46.8406 55.0061 46.517 54.8386 46.0211 54.7959L46.465 54.0436C46.0478 54.0271 45.6382 53.9275 45.2601 53.7505C44.8819 53.5735 44.5428 53.3228 44.2628 53.013C43.9827 52.7033 43.7675 52.3407 43.6295 51.9465C43.4915 51.5523 43.4336 51.1344 43.4593 50.7174C43.4475 50.2382 43.5366 49.7621 43.7206 49.3196C43.9047 48.877 44.1796 48.478 44.5277 48.1488C44.8757 47.8196 45.2891 47.5673 45.7409 47.4085C46.1926 47.2496 46.6728 47.1877 47.1501 47.2267C47.7311 47.1967 48.3117 47.291 48.8535 47.5033L48.6358 48.2034C48.1836 48.0153 47.6974 47.9229 47.2078 47.9323C46.8386 47.9 46.4669 47.9483 46.1184 48.0741C45.7698 48.1999 45.4528 48.4002 45.1892 48.6609C44.9253 48.9212 44.7212 49.2361 44.5913 49.5835C44.4614 49.9308 44.4087 50.3023 44.4369 50.6721C44.4101 51.0342 44.4626 51.3977 44.5907 51.7374C44.7189 52.0771 44.9196 52.3847 45.1788 52.6387C45.4383 52.8922 45.7498 53.086 46.0917 53.2065C46.4336 53.3271 46.7977 53.3717 47.1585 53.337C47.6727 53.3464 48.1838 53.2542 48.6624 53.0659L48.8516 53.7434C48.2604 53.973 47.6287 54.0803 46.9948 54.0588L46.7544 54.4502C46.949 54.4644 47.1321 54.5482 47.27 54.6863C47.408 54.8244 47.4917 55.0075 47.5059 55.2023C47.5059 55.7707 46.9722 56 46.4223 56H46.4157ZM146.067 53.0907C145.767 52.7736 145.537 52.3974 145.392 51.986C145.247 51.5747 145.189 51.1374 145.222 50.7024C145.188 50.2524 145.248 49.8 145.398 49.3744C145.548 48.9488 145.785 48.5592 146.094 48.2307C146.403 47.9021 146.778 47.6417 147.193 47.466C147.609 47.2904 148.056 47.2033 148.507 47.2105C148.944 47.1985 149.378 47.2788 149.781 47.4462C150.184 47.6135 150.548 47.864 150.848 48.1814C151.148 48.4988 151.377 48.876 151.522 49.2883C151.666 49.7007 151.722 50.139 151.686 50.5745C151.724 51.0254 151.667 51.4794 151.518 51.9067C151.37 52.334 151.133 52.7251 150.823 53.0546C150.513 53.3841 150.137 53.6446 149.72 53.819C149.303 53.9933 148.853 54.0776 148.401 54.0665H148.332C147.907 54.0666 147.486 53.9798 147.096 53.8113C146.705 53.6429 146.353 53.3962 146.061 53.0867L146.067 53.0907ZM146.2 50.6834C146.2 52.0969 147.02 53.3682 148.455 53.3682C149.891 53.3682 150.71 52.1196 150.71 50.6143C150.71 49.288 149.959 47.9124 148.455 47.9124C146.951 47.9124 146.202 49.2199 146.202 50.6797L146.2 50.6834ZM127.996 53.0907C127.697 52.7736 127.467 52.3974 127.321 51.986C127.176 51.5747 127.118 51.1374 127.152 50.7024C127.117 50.2522 127.177 49.7997 127.327 49.3739C127.477 48.9481 127.714 48.5584 128.023 48.2297C128.333 47.9013 128.707 47.6411 129.123 47.4656C129.538 47.2901 129.986 47.2031 130.437 47.2105C130.873 47.1985 131.307 47.2788 131.711 47.4462C132.114 47.6135 132.478 47.8639 132.778 48.1814C133.078 48.4987 133.308 48.876 133.453 49.2883C133.597 49.7007 133.654 50.139 133.617 50.5745C133.656 51.0254 133.598 51.4794 133.45 51.9067C133.301 52.334 133.064 52.7251 132.754 53.0546C132.444 53.3841 132.068 53.6446 131.651 53.819C131.234 53.9933 130.785 54.0776 130.333 54.0665H130.263C129.838 54.0666 129.417 53.9798 129.027 53.8113C128.636 53.6429 128.284 53.3962 127.992 53.0867L127.996 53.0907ZM128.129 50.6834C128.129 52.0969 128.949 53.3682 130.385 53.3682C131.82 53.3682 132.64 52.1196 132.64 50.6143C132.64 49.288 131.888 47.9124 130.385 47.9124C128.881 47.9124 128.131 49.2199 128.131 50.6797L128.129 50.6834ZM63.0205 53.0907C62.7211 52.7736 62.4912 52.3974 62.3458 51.986C62.2004 51.5747 62.1427 51.1374 62.1762 50.7024C62.1407 50.2522 62.1997 49.7995 62.3495 49.3735C62.4993 48.9474 62.7366 48.5575 63.046 48.2288C63.3554 47.8997 63.7302 47.6392 64.1463 47.464C64.5625 47.2887 65.0106 47.2027 65.462 47.2114C65.8985 47.1995 66.3327 47.2798 66.7361 47.4471C67.1395 47.6144 67.5031 47.8649 67.8033 48.1823C68.1032 48.4998 68.3329 48.8772 68.4773 49.2895C68.6218 49.7018 68.6778 50.14 68.6417 50.5754C68.68 51.0263 68.6229 51.4803 68.4742 51.9076C68.3255 52.335 68.0885 52.726 67.7787 53.0555C67.4687 53.385 67.0928 53.6456 66.6756 53.8199C66.2583 53.9942 65.809 54.0785 65.357 54.0674H65.2898C64.8655 54.0672 64.4457 53.9803 64.0561 53.812C63.6665 53.6438 63.3154 53.3977 63.0242 53.0888L63.0205 53.0907ZM63.1302 50.6834C63.1302 52.0969 63.9421 53.3682 65.3853 53.3682C66.8285 53.3682 67.6405 52.1196 67.6405 50.6143C67.6405 49.288 66.8891 47.9124 65.3853 47.9124C63.8815 47.9124 63.133 49.2199 63.133 50.6797L63.1302 50.6834ZM16.1221 53.0907C15.8222 52.7739 15.592 52.3977 15.4466 51.9863C15.3012 51.5749 15.2437 51.1375 15.2778 50.7024C15.2432 50.2523 15.3029 49.7998 15.4532 49.3741C15.6035 48.9485 15.8409 48.559 16.1504 48.2307C16.4597 47.9021 16.8342 47.6418 17.2497 47.4663C17.6652 47.2908 18.1127 47.204 18.5636 47.2114C18.9999 47.1992 19.4339 47.2795 19.8371 47.4466C20.2404 47.6138 20.604 47.864 20.904 48.1814C21.204 48.4988 21.4337 48.8762 21.5781 49.2886C21.7226 49.7009 21.7786 50.139 21.7424 50.5745C21.7807 51.0254 21.7236 51.4794 21.5749 51.9067C21.4262 52.334 21.1892 52.7251 20.8794 53.0546C20.5694 53.3841 20.1935 53.6446 19.7762 53.819C19.359 53.9933 18.9096 54.0776 18.4576 54.0665H18.3876C17.9633 54.0659 17.5437 53.9789 17.1541 53.8107C16.7646 53.6424 16.4135 53.3965 16.1221 53.0879V53.0907ZM16.2546 50.6834C16.2546 52.0969 17.0741 53.3682 18.5097 53.3682C19.9453 53.3682 20.7649 52.1196 20.7649 50.6143C20.7649 49.288 20.0134 47.9124 18.5097 47.9124C17.0059 47.9124 16.2573 49.2199 16.2573 50.6797L16.2546 50.6834ZM111.363 54.0607C110.905 54.1034 110.444 54.0471 110.01 53.8955C109.576 53.744 109.18 53.5009 108.849 53.1825C108.517 52.8641 108.258 52.4779 108.088 52.0503C107.919 51.6227 107.843 51.1636 107.867 50.7043C107.847 50.2229 107.931 49.7429 108.113 49.2967C108.294 48.8504 108.569 48.4485 108.919 48.1176C109.268 47.7867 109.685 47.5345 110.14 47.3784C110.595 47.2223 111.079 47.1656 111.558 47.2123C112.134 47.1928 112.707 47.2932 113.242 47.507L113.017 48.2062C112.565 48.0167 112.079 47.9242 111.589 47.9351C111.221 47.9033 110.85 47.9521 110.502 48.0783C110.155 48.2044 109.839 48.4048 109.576 48.6655C109.313 48.9259 109.11 49.2408 108.981 49.5879C108.852 49.9349 108.801 50.3058 108.83 50.6749C108.803 51.0369 108.855 51.4005 108.983 51.7402C109.111 52.0799 109.312 52.3874 109.571 52.6415C109.83 52.8949 110.142 53.0887 110.484 53.2093C110.825 53.3299 111.189 53.3744 111.55 53.3398C112.065 53.3493 112.576 53.2574 113.054 53.0689L113.227 53.7452C112.681 53.9556 112.101 54.0635 111.515 54.0634L111.363 54.0607ZM156.592 53.158C156.263 52.8373 156.005 52.4518 155.833 52.0258C155.66 51.5999 155.579 51.1427 155.593 50.6834C155.593 48.7035 157.051 47.2512 159.426 47.2512C160.027 47.2381 160.625 47.343 161.186 47.5599L160.967 48.26C160.471 48.057 159.939 47.9603 159.404 47.976C159.035 47.9357 158.663 47.9756 158.312 48.0931C157.961 48.2105 157.639 48.4027 157.37 48.6565C157.1 48.9103 156.888 49.2196 156.749 49.5631C156.61 49.9066 156.547 50.2762 156.564 50.6464C156.539 51.0095 156.593 51.3737 156.722 51.7138C156.851 52.054 157.053 52.3621 157.312 52.617C157.572 52.8723 157.885 53.068 158.228 53.1903C158.571 53.3127 158.937 53.3589 159.299 53.3256C159.713 53.3458 160.126 53.2845 160.516 53.1455V51.1703H159.072V50.4702H161.402L161.417 53.6684C160.715 53.9019 159.981 54.0235 159.241 54.0285C159.171 54.0333 159.101 54.0352 159.031 54.0352C158.142 54.0348 157.282 53.7243 156.598 53.157L156.592 53.158ZM137.942 53.9934L137.957 47.3185H138.868V53.2403H141.874V53.9924L137.942 53.9934ZM99.9669 53.9934V47.3185H103.785V48.0706H100.876V50.1406H103.627L103.636 50.8474H100.884V53.2394H103.952V53.9915L99.9669 53.9934ZM78.3484 53.9934V47.3185H82.1746V48.0706H79.2645V50.1406H82.0155V50.8474H79.2645V53.2394H82.3241V53.9915L78.3484 53.9934ZM176.022 53.964L175.271 51.8713H172.76L172.009 53.964H171.077L173.482 47.3185H174.588L177 53.964H176.022ZM173.662 49.2842L172.948 51.1733H175.075L174.384 49.2918C174.225 48.8636 174.12 48.4637 174.015 48.082C173.914 48.476 173.801 48.874 173.666 49.2814L173.662 49.2842ZM165.957 53.964V47.3185H166.869V53.964H165.957ZM121.878 53.964L119.623 50.5926C119.137 49.883 118.694 49.1446 118.298 48.3815C118.351 49.217 118.373 50.0136 118.373 51.1201V53.9621L117.516 53.9698V47.324H118.515L120.771 50.6881C121.247 51.3755 121.671 52.0972 122.042 52.8471C121.959 51.9661 121.937 51.1542 121.937 50.1235V47.3231H122.801V53.9689L121.878 53.964ZM92.9744 53.964L92.9516 48.0498H90.7939V47.2977H96.0557V48.0498H93.8905V53.964H92.9744ZM57.593 53.964L56.8417 51.8713H54.3243L53.573 53.964H52.6484L55.054 47.3185H56.1518L58.565 53.964H57.593ZM55.2338 49.2842L54.5193 51.1733H56.6457L55.9549 49.2918C55.7969 48.8636 55.6909 48.4637 55.5868 48.082C55.4846 48.476 55.3719 48.874 55.2366 49.2814L55.2338 49.2842ZM38.8998 53.964L38.1483 51.8713H35.6377L34.8863 53.964H33.9541L36.3598 47.3185H37.4642L39.8773 53.964H38.8998ZM36.5396 49.2842L35.8251 51.1733H37.9516L37.2607 49.2918C37.1026 48.8636 36.9966 48.4637 36.8916 48.082C36.7894 48.476 36.6768 48.874 36.5414 49.2814L36.5396 49.2842ZM27.6438 53.964L25.3357 47.3185H26.3058L27.4025 50.5926C27.6954 51.4067 27.9463 52.2354 28.154 53.0754C28.3489 52.3232 28.6423 51.4725 28.9584 50.599L30.1535 47.3185H31.1312L28.6064 53.964H27.6438ZM10.0417 53.964L7.78661 50.5926C7.30621 49.8813 6.867 49.1431 6.47117 48.3815C6.52322 49.217 6.54591 50.0136 6.54591 51.1201V53.9621L5.65917 53.9698V47.324H6.65184L8.90706 50.6881C9.38013 51.3772 9.80442 52.0987 10.177 52.8471C10.0946 51.9417 10.0598 51.0326 10.0729 50.1235V47.3231H10.9303V53.9689L10.0417 53.964ZM0 53.964V47.3185H0.909385V53.964H0ZM54.332 46.9207C54.332 46.3191 54.594 45.9116 55.0842 45.9116C55.3075 45.9259 55.5243 45.9932 55.7165 46.1077C55.8657 46.2051 56.0354 46.2667 56.2123 46.2876C56.3779 46.2876 56.4755 46.2205 56.4906 45.9088H56.9864C56.9864 46.5255 56.7688 46.8638 56.2351 46.8638C56.0196 46.8426 55.8116 46.7732 55.6265 46.6609C55.4666 46.5639 55.2867 46.5047 55.1004 46.4877C54.9357 46.4877 54.861 46.661 54.8307 46.9244L54.332 46.9207ZM136.665 18.9854C136.639 16.3818 137.129 13.799 138.105 11.3858C139.019 9.13575 140.37 7.08971 142.08 5.36637C143.791 3.66139 145.827 2.31884 148.068 1.4188C152.957 -0.472933 158.375 -0.472933 163.264 1.4188C165.522 2.32586 167.572 3.6827 169.291 5.40708C170.994 7.13225 172.339 9.1781 173.249 11.4265C174.216 13.8268 174.701 16.3942 174.677 18.9824V38.3499H166.148V18.9824C166.166 17.5318 165.9 16.0918 165.367 14.7431C164.876 13.5149 164.139 12.4005 163.2 11.4691C162.25 10.5519 161.123 9.8374 159.888 9.36876C158.54 8.85703 157.109 8.60284 155.667 8.6194C154.217 8.60456 152.776 8.85863 151.418 9.36876C150.179 9.82994 149.051 10.548 148.109 11.476C147.166 12.404 146.43 13.521 145.949 14.7535C145.427 16.1095 145.171 17.554 145.198 19.0071V38.3775H136.667L136.665 18.9854ZM125.277 0.291284H133.881V38.3527H125.277V0.291284ZM83.6906 0.291284H109.876C111.403 0.27775 112.918 0.569018 114.332 1.14773C115.745 1.72645 117.029 2.58112 118.109 3.66203C120.269 5.86455 121.47 8.8331 121.45 11.9191L121.438 11.9342C121.448 13.4998 121.159 15.0531 120.586 16.5099C120.047 17.9007 119.232 19.1679 118.191 20.2357C117.151 21.3035 115.905 22.1498 114.529 22.7236C113.051 23.342 111.463 23.6515 109.861 23.633H92.2192V38.3536H83.6897L83.6906 0.291284ZM92.2201 15.0121H109.861C110.268 15.0224 110.673 14.9508 111.053 14.8014C111.432 14.652 111.777 14.4279 112.068 14.1425C112.363 13.857 112.594 13.5129 112.748 13.1325C112.902 12.752 112.975 12.3435 112.961 11.9333C112.971 11.5241 112.898 11.1173 112.747 10.737C112.596 10.3568 112.37 10.0109 112.082 9.72031C111.793 9.42595 111.447 9.19439 111.064 9.04034C110.682 8.88628 110.272 8.81299 109.86 8.82501H92.2192L92.2201 15.0121ZM61.299 38.207H61.105C58.5681 38.2078 56.055 37.718 53.7035 36.7649C51.4586 35.8502 49.417 34.4997 47.6962 32.791C45.9885 31.0724 44.6472 29.0245 43.7537 26.7716C42.7937 24.3544 42.3134 21.7731 42.3398 19.172C42.3192 16.5663 42.8102 13.9819 43.7849 11.5657C44.6863 9.30605 46.0365 7.25296 47.7538 5.53105C49.4708 3.82724 51.509 2.48214 53.75 1.57399C56.1476 0.603021 58.7137 0.117123 61.3 0.144418H80.6434V8.683H61.3C59.8496 8.66529 58.4097 8.93133 57.0613 9.46636C55.8309 9.95245 54.7162 10.6918 53.7896 11.6367C52.8629 12.5817 52.1449 13.7111 51.6821 14.9515C51.1687 16.3014 50.9147 17.7363 50.9336 19.1806C50.9192 20.6324 51.1727 22.0744 51.6812 23.4341C52.1462 24.6731 52.8651 25.8008 53.7916 26.745C54.7221 27.6823 55.8363 28.4168 57.064 28.9022C58.4188 29.4258 59.8621 29.6812 61.3141 29.6543H80.6585V38.204L61.299 38.207ZM21.6099 38.207H2.2618V29.658H21.6099C23.0616 29.6843 24.5046 29.4286 25.859 28.9049C27.0844 28.4196 28.1942 27.6817 29.1165 26.7394C30.0388 25.7971 30.7529 24.6714 31.2125 23.4351C31.7226 22.0756 31.9774 20.6336 31.964 19.1815C31.9794 17.7376 31.7245 16.3034 31.2125 14.9534C30.7393 13.7172 30.0215 12.5894 29.1022 11.6377C28.1705 10.6992 27.0568 9.96173 25.8297 9.4703C24.4872 8.93757 23.054 8.67133 21.6099 8.6867H2.2618V0.149275H21.6099C24.1955 0.122707 26.7608 0.608582 29.158 1.57885C31.4084 2.4853 33.4561 3.83106 35.1816 5.53776C36.895 7.25987 38.2413 9.31212 39.1392 11.5704C40.1073 13.9906 40.5925 16.5773 40.5672 19.1843C40.5934 21.785 40.1145 24.366 39.1572 26.7838C38.2624 29.0364 36.9212 31.0843 35.2147 32.8042C33.4916 34.513 31.4477 35.8635 29.2006 36.7774C26.8547 37.725 24.3486 38.2119 21.819 38.2116L21.6099 38.207ZM61.4807 23.6018V15.0235H70.0622V23.6018H61.4807ZM12.8088 23.6018V15.0235H21.4121L21.3932 23.6018H12.8088Z" fill="white"/>
</svg>
